<svg width="362" height="346" viewBox="0 0 362 346" fill="none" xmlns="http://www.w3.org/2000/svg">
<path d="M337.575 258.007C338.301 258.426 339.23 258.177 339.643 257.448C354.35 231.447 362.059 202.065 362 172.176C361.94 141.78 353.849 111.941 338.548 85.6774C323.247 59.4144 301.277 37.6607 274.865 22.6189C248.452 7.57719 218.534 -0.218485 188.14 0.0212339C157.745 0.260953 127.954 8.52755 101.781 23.984C75.6094 39.4405 53.986 61.538 39.1007 88.0392C24.2155 114.54 16.5969 144.504 17.0164 174.897C17.4289 204.783 25.5996 234.04 40.7155 259.805C41.1398 260.528 42.0727 260.762 42.7921 260.332V260.332C43.5114 259.901 43.7447 258.969 43.3206 258.246C28.4793 232.94 20.4572 204.206 20.0521 174.855C19.64 144.997 27.1244 115.561 41.7477 89.5259C56.371 63.4912 77.6138 41.7826 103.325 26.5981C129.037 11.4137 158.304 3.29257 188.163 3.05707C218.023 2.82157 247.415 10.48 273.362 25.2571C299.31 40.0341 320.893 61.4049 335.925 87.2058C350.957 113.007 358.905 142.321 358.964 172.182C359.022 201.536 351.454 230.393 337.013 255.93C336.601 256.659 336.849 257.588 337.575 258.007V258.007Z" fill="#D9D9D9" fill-opacity="0.16"/>
<g filter="url(#filter0_d_254_59)">
<path d="M41.9936 259.016C17.5161 219.663 16.4126 173.65 18.9206 155.563C25.7422 114.993 38.4825 88.9608 44 81.0159" stroke="#E25319" stroke-width="3" stroke-linecap="round"/>
</g>
<circle cx="190" cy="173.016" r="63" stroke="#87888C" stroke-opacity="0.15" stroke-width="4"/>
<path d="M187.091 149.52H175.103V155.847C175.621 155.206 176.361 154.688 177.323 154.293C178.285 153.874 179.309 153.664 180.394 153.664C182.367 153.664 183.983 154.096 185.241 154.959C186.499 155.822 187.412 156.932 187.979 158.289C188.546 159.621 188.83 161.052 188.83 162.581C188.83 165.418 188.016 167.699 186.388 169.426C184.785 171.153 182.491 172.016 179.506 172.016C176.694 172.016 174.449 171.313 172.772 169.907C171.095 168.501 170.145 166.663 169.923 164.394H174.955C175.177 165.381 175.67 166.17 176.435 166.762C177.224 167.354 178.223 167.65 179.432 167.65C180.887 167.65 181.985 167.194 182.725 166.281C183.465 165.368 183.835 164.16 183.835 162.655C183.835 161.126 183.453 159.966 182.688 159.177C181.948 158.363 180.85 157.956 179.395 157.956C178.359 157.956 177.496 158.215 176.805 158.733C176.114 159.251 175.621 159.942 175.325 160.805H170.367V144.969H187.091V149.52ZM209.941 148.965L200.099 172.016H194.845L204.761 149.557H192.107V145.117H209.941V148.965Z" fill="white"/>
<path d="M172.244 207.016L167.402 201.418V207.016H165.35V194.506H167.402V200.212L172.262 194.506H174.836L169.4 200.77L174.926 207.016H172.244ZM188.747 196.936C189.527 196.936 190.223 197.098 190.835 197.422C191.459 197.746 191.945 198.226 192.293 198.862C192.653 199.498 192.833 200.266 192.833 201.166V207.016H190.799V201.472C190.799 200.584 190.577 199.906 190.133 199.438C189.689 198.958 189.083 198.718 188.315 198.718C187.547 198.718 186.935 198.958 186.479 199.438C186.035 199.906 185.813 200.584 185.813 201.472V207.016H183.779V201.472C183.779 200.584 183.557 199.906 183.113 199.438C182.669 198.958 182.063 198.718 181.295 198.718C180.527 198.718 179.915 198.958 179.459 199.438C179.015 199.906 178.793 200.584 178.793 201.472V207.016H176.741V197.098H178.793V198.232C179.129 197.824 179.555 197.506 180.071 197.278C180.587 197.05 181.139 196.936 181.727 196.936C182.519 196.936 183.227 197.104 183.851 197.44C184.475 197.776 184.955 198.262 185.291 198.898C185.591 198.298 186.059 197.824 186.695 197.476C187.331 197.116 188.015 196.936 188.747 196.936ZM202.104 190.024L197.208 210.166H195.192L200.07 190.024H202.104ZM209.82 196.936C210.576 196.936 211.248 197.098 211.836 197.422C212.436 197.746 212.904 198.226 213.24 198.862C213.588 199.498 213.762 200.266 213.762 201.166V207.016H211.728V201.472C211.728 200.584 211.506 199.906 211.062 199.438C210.618 198.958 210.012 198.718 209.244 198.718C208.476 198.718 207.864 198.958 207.408 199.438C206.964 199.906 206.742 200.584 206.742 201.472V207.016H204.69V193.696H206.742V198.25C207.09 197.83 207.528 197.506 208.056 197.278C208.596 197.05 209.184 196.936 209.82 196.936Z" fill="#87888C"/>
<path d="M327.423 250.757L299.575 234.617" stroke="#87888C" stroke-opacity="0.2" stroke-width="2.41451" stroke-linecap="round"/>
<path d="M340.807 220.717L331.956 217.796" stroke="#87888C" stroke-opacity="0.2" stroke-width="2.41451" stroke-linecap="round"/>
<path d="M334.363 236.138L326.079 231.973" stroke="#87888C" stroke-opacity="0.2" stroke-width="2.41451" stroke-linecap="round"/>
<path d="M349 188.651L339.604 188.206" stroke="#87888C" stroke-opacity="0.2" stroke-width="2.41451" stroke-linecap="round"/>
<path d="M346.082 205.293L336.068 203.01" stroke="#87888C" stroke-opacity="0.2" stroke-width="2.41451" stroke-linecap="round"/>
<path d="M241.55 22.2306L238.184 31.5424" stroke="#87888C" stroke-opacity="0.2" stroke-width="2.41451" stroke-linecap="round"/>
<path d="M256.805 27.7691L252.265 37.1024" stroke="#87888C" stroke-opacity="0.2" stroke-width="2.41451" stroke-linecap="round"/>
<path d="M270.726 35.6726L254.185 64.3427" stroke="#87888C" stroke-opacity="0.2" stroke-width="2.41451" stroke-linecap="round"/>
<path d="M284.977 44.3999L278.657 52.5325" stroke="#87888C" stroke-opacity="0.2" stroke-width="2.41451" stroke-linecap="round"/>
<path d="M297.308 55.504L291.555 62.3928" stroke="#87888C" stroke-opacity="0.2" stroke-width="2.41451" stroke-linecap="round"/>
<path d="M309.624 66.5913L302.707 74.1182" stroke="#87888C" stroke-opacity="0.2" stroke-width="2.41451" stroke-linecap="round"/>
<path d="M320.195 79.5283L312.085 85.8437" stroke="#87888C" stroke-opacity="0.2" stroke-width="2.41451" stroke-linecap="round"/>
<path d="M328.32 92.9169L301.025 110.068" stroke="#87888C" stroke-opacity="0.2" stroke-width="2.41451" stroke-linecap="round"/>
<path d="M336.638 107.885L327.91 112.362" stroke="#87888C" stroke-opacity="0.2" stroke-width="2.41451" stroke-linecap="round"/>
<path d="M342.515 123.294L333.181 126.549" stroke="#87888C" stroke-opacity="0.2" stroke-width="2.41451" stroke-linecap="round"/>
<path d="M345.464 139.947L336.686 141.341" stroke="#87888C" stroke-opacity="0.2" stroke-width="2.41451" stroke-linecap="round"/>
<path d="M348.403 155.978L339.614 156.756" stroke="#87888C" stroke-opacity="0.2" stroke-width="2.41451" stroke-linecap="round"/>
<path d="M224.541 17.9309L222.924 26.5938" stroke="#87888C" stroke-opacity="0.2" stroke-width="2.41451" stroke-linecap="round"/>
<path d="M126.55 26.6165L130.82 36.4048" stroke="#87888C" stroke-opacity="0.2" stroke-width="2.41451" stroke-linecap="round"/>
<path d="M141.799 20.4446L145.493 30.8602" stroke="#87888C" stroke-opacity="0.2" stroke-width="2.41451" stroke-linecap="round"/>
<path d="M158.227 16.7297L160.161 27.1776" stroke="#87888C" stroke-opacity="0.2" stroke-width="2.41451" stroke-linecap="round"/>
<path d="M175.242 14.2478L175.416 24.728" stroke="#87888C" stroke-opacity="0.2" stroke-width="2.41451" stroke-linecap="round"/>
<path d="M191.48 13.0159L192.035 46.306" stroke="#87888C" stroke-opacity="0.2" stroke-width="2.41451" stroke-linecap="round"/>
<path d="M208.097 14.2478L208.271 24.728" stroke="#87888C" stroke-opacity="0.2" stroke-width="2.41451" stroke-linecap="round"/>
<path d="M60.8591 76.6013L69.7813 83.8377" stroke="#87888C" stroke-opacity="0.2" stroke-width="2.41451" stroke-linecap="round"/>
<path d="M72.0117 64.8811L80.3371 71.5117" stroke="#87888C" stroke-opacity="0.2" stroke-width="2.41451" stroke-linecap="round"/>
<path d="M84.3274 53.156L91.4897 60.4246" stroke="#87888C" stroke-opacity="0.2" stroke-width="2.41451" stroke-linecap="round"/>
<path d="M97.23 42.6628L103.229 50.5695" stroke="#87888C" stroke-opacity="0.2" stroke-width="2.41451" stroke-linecap="round"/>
<path d="M111.143 34.1345L128.626 62.1805" stroke="#87888C" stroke-opacity="0.2" stroke-width="2.41451" stroke-linecap="round"/>
<g filter="url(#filter1_d_254_59)">
<path d="M32.1821 186.356L41.5476 184.951" stroke="#E25319" stroke-width="2.41451" stroke-linecap="round"/>
</g>
<g filter="url(#filter2_d_254_59)">
<path d="M31 172.997L62.6775 172.423" stroke="#E25319" stroke-width="2.41451" stroke-linecap="round"/>
</g>
<g filter="url(#filter3_d_254_59)">
<path d="M43.3554 233.843L53.8429 229.334" stroke="#E25319" stroke-width="2.41451" stroke-linecap="round"/>
</g>
<g filter="url(#filter4_d_254_59)">
<path d="M38.0593 218.424L47.9909 215.775" stroke="#E25319" stroke-width="2.41451" stroke-linecap="round"/>
</g>
<g filter="url(#filter5_d_254_59)">
<path d="M34.5339 202.387L43.8891 200.366" stroke="#E25319" stroke-width="2.41451" stroke-linecap="round"/>
</g>
<g filter="url(#filter6_d_254_59)">
<path d="M52.8307 248.169L78.983 232.89" stroke="#E25319" stroke-width="2.41451" stroke-linecap="round"/>
</g>
<g filter="url(#filter7_d_254_59)">
<path d="M31.585 153.683L41.5575 153.5" stroke="#E25319" stroke-width="2.41451" stroke-linecap="round"/>
</g>
<g filter="url(#filter8_d_254_59)">
<path d="M33.9062 136.42L43.93 139.319" stroke="#E25319" stroke-width="2.41451" stroke-linecap="round"/>
</g>
<g filter="url(#filter9_d_254_59)">
<path d="M38.595 121L48.0424 124.527" stroke="#E25319" stroke-width="2.41451" stroke-linecap="round"/>
</g>
<g filter="url(#filter10_d_254_59)">
<path d="M45.0383 105.58L53.9196 110.351" stroke="#E25319" stroke-width="2.41451" stroke-linecap="round"/>
</g>
<g filter="url(#filter11_d_254_59)">
<path d="M52.5698 90.9612L81.0042 107.09" stroke="#E25319" stroke-width="2.41451" stroke-linecap="round"/>
</g>
<path d="M348.993 174.259L316.729 174.851" stroke="#87888C" stroke-opacity="0.2" stroke-width="2.41451" stroke-linecap="round"/>
<path d="M90.968 227.536C91.992 226.651 92.7973 225.925 93.384 225.36C93.9813 224.784 94.4773 224.187 94.872 223.568C95.2667 222.949 95.464 222.331 95.464 221.712C95.464 221.072 95.3093 220.571 95 220.208C94.7013 219.845 94.2267 219.664 93.576 219.664C92.9467 219.664 92.456 219.867 92.104 220.272C91.7627 220.667 91.5813 221.2 91.56 221.872H89.8C89.832 220.656 90.1947 219.728 90.888 219.088C91.592 218.437 92.4827 218.112 93.56 218.112C94.7227 218.112 95.6293 218.432 96.28 219.072C96.9413 219.712 97.272 220.565 97.272 221.632C97.272 222.4 97.0747 223.141 96.68 223.856C96.296 224.56 95.832 225.195 95.288 225.76C94.7547 226.315 94.072 226.96 93.24 227.696L92.52 228.336H97.592V229.856H89.816V228.528L90.968 227.536ZM99.1944 224.032C99.1944 222.187 99.5037 220.747 100.122 219.712C100.752 218.667 101.829 218.144 103.354 218.144C104.88 218.144 105.952 218.667 106.57 219.712C107.2 220.747 107.514 222.187 107.514 224.032C107.514 225.899 107.2 227.36 106.57 228.416C105.952 229.461 104.88 229.984 103.354 229.984C101.829 229.984 100.752 229.461 100.122 228.416C99.5037 227.36 99.1944 225.899 99.1944 224.032ZM105.722 224.032C105.722 223.168 105.664 222.437 105.546 221.84C105.44 221.243 105.216 220.757 104.874 220.384C104.533 220 104.026 219.808 103.354 219.808C102.682 219.808 102.176 220 101.834 220.384C101.493 220.757 101.264 221.243 101.146 221.84C101.04 222.437 100.986 223.168 100.986 224.032C100.986 224.928 101.04 225.68 101.146 226.288C101.253 226.896 101.477 227.387 101.818 227.76C102.17 228.133 102.682 228.32 103.354 228.32C104.026 228.32 104.533 228.133 104.874 227.76C105.226 227.387 105.456 226.896 105.562 226.288C105.669 225.68 105.722 224.928 105.722 224.032Z" fill="white"/>
<path d="M74.736 176.584V175.208L80.112 167.496H82.32V175H83.808V176.584H82.32V179.016H80.528V176.584H74.736ZM80.608 169.352L76.832 175H80.608V169.352ZM85.3194 173.032C85.3194 171.187 85.6287 169.747 86.2474 168.712C86.8767 167.667 87.954 167.144 89.4794 167.144C91.0047 167.144 92.0767 167.667 92.6954 168.712C93.3247 169.747 93.6394 171.187 93.6394 173.032C93.6394 174.899 93.3247 176.36 92.6954 177.416C92.0767 178.461 91.0047 178.984 89.4794 178.984C87.954 178.984 86.8767 178.461 86.2474 177.416C85.6287 176.36 85.3194 174.899 85.3194 173.032ZM91.8474 173.032C91.8474 172.168 91.7887 171.437 91.6714 170.84C91.5647 170.243 91.3407 169.757 90.9994 169.384C90.658 169 90.1514 168.808 89.4794 168.808C88.8074 168.808 88.3007 169 87.9594 169.384C87.618 169.757 87.3887 170.243 87.2714 170.84C87.1647 171.437 87.1114 172.168 87.1114 173.032C87.1114 173.928 87.1647 174.68 87.2714 175.288C87.378 175.896 87.602 176.387 87.9434 176.76C88.2954 177.133 88.8074 177.32 89.4794 177.32C90.1514 177.32 90.658 177.133 90.9994 176.76C91.3514 176.387 91.5807 175.896 91.6874 175.288C91.794 174.68 91.8474 173.928 91.8474 173.032Z" fill="white"/>
<path d="M97.232 110.056C97.1147 109.565 96.9013 109.197 96.592 108.952C96.2827 108.707 95.8507 108.584 95.296 108.584C94.4533 108.584 93.824 108.909 93.408 109.56C92.992 110.2 92.7733 111.267 92.752 112.76C93.0293 112.291 93.4347 111.928 93.968 111.672C94.5013 111.416 95.0773 111.288 95.696 111.288C96.4 111.288 97.0187 111.443 97.552 111.752C98.096 112.051 98.5173 112.488 98.816 113.064C99.1253 113.64 99.28 114.328 99.28 115.128C99.28 115.875 99.1307 116.541 98.832 117.128C98.544 117.715 98.112 118.179 97.536 118.52C96.96 118.851 96.2667 119.016 95.456 119.016C94.3573 119.016 93.4933 118.776 92.864 118.296C92.2453 117.805 91.808 117.117 91.552 116.232C91.3067 115.347 91.184 114.243 91.184 112.92C91.184 109.016 92.56 107.064 95.312 107.064C96.3787 107.064 97.216 107.352 97.824 107.928C98.4427 108.504 98.8053 109.213 98.912 110.056H97.232ZM95.296 112.824C94.6453 112.824 94.0907 113.021 93.632 113.416C93.184 113.8 92.96 114.36 92.96 115.096C92.96 115.832 93.168 116.419 93.584 116.856C94.0107 117.283 94.6027 117.496 95.36 117.496C96.032 117.496 96.56 117.288 96.944 116.872C97.3387 116.456 97.536 115.901 97.536 115.208C97.536 114.483 97.344 113.907 96.96 113.48C96.5867 113.043 96.032 112.824 95.296 112.824ZM101.226 113.032C101.226 111.187 101.535 109.747 102.154 108.712C102.783 107.667 103.86 107.144 105.386 107.144C106.911 107.144 107.983 107.667 108.602 108.712C109.231 109.747 109.546 111.187 109.546 113.032C109.546 114.899 109.231 116.36 108.602 117.416C107.983 118.461 106.911 118.984 105.386 118.984C103.86 118.984 102.783 118.461 102.154 117.416C101.535 116.36 101.226 114.899 101.226 113.032ZM107.754 113.032C107.754 112.168 107.695 111.437 107.578 110.84C107.471 110.243 107.247 109.757 106.906 109.384C106.564 109 106.058 108.808 105.386 108.808C104.714 108.808 104.207 109 103.866 109.384C103.524 109.757 103.295 110.243 103.178 110.84C103.071 111.437 103.018 112.168 103.018 113.032C103.018 113.928 103.071 114.68 103.178 115.288C103.284 115.896 103.508 116.387 103.85 116.76C104.202 117.133 104.714 117.32 105.386 117.32C106.058 117.32 106.564 117.133 106.906 116.76C107.258 116.387 107.487 115.896 107.594 115.288C107.7 114.68 107.754 113.928 107.754 113.032Z" fill="white"/>
<path d="M134.928 75.9199C133.819 75.3652 133.264 74.4905 133.264 73.2959C133.264 72.7199 133.408 72.1919 133.696 71.7119C133.984 71.2319 134.416 70.8532 134.992 70.5759C135.568 70.2879 136.272 70.1439 137.104 70.1439C137.925 70.1439 138.624 70.2879 139.2 70.5759C139.787 70.8532 140.224 71.2319 140.512 71.7119C140.8 72.1919 140.944 72.7199 140.944 73.2959C140.944 73.8932 140.789 74.4212 140.48 74.8799C140.181 75.3279 139.781 75.6745 139.28 75.9199C139.888 76.1439 140.368 76.5119 140.72 77.0239C141.072 77.5252 141.248 78.1172 141.248 78.7999C141.248 79.4932 141.072 80.1065 140.72 80.6399C140.368 81.1732 139.877 81.5839 139.248 81.8719C138.619 82.1599 137.904 82.3039 137.104 82.3039C136.304 82.3039 135.589 82.1599 134.96 81.8719C134.341 81.5839 133.856 81.1732 133.504 80.6399C133.152 80.1065 132.976 79.4932 132.976 78.7999C132.976 78.1065 133.152 77.5092 133.504 77.0079C133.856 76.5065 134.331 76.1439 134.928 75.9199ZM139.2 73.5199C139.2 72.9225 139.013 72.4639 138.64 72.1439C138.267 71.8239 137.755 71.6639 137.104 71.6639C136.464 71.6639 135.957 71.8239 135.584 72.1439C135.211 72.4639 135.024 72.9279 135.024 73.5359C135.024 74.0692 135.216 74.5065 135.6 74.8479C135.995 75.1785 136.496 75.3439 137.104 75.3439C137.712 75.3439 138.213 75.1732 138.608 74.8319C139.003 74.4905 139.2 74.0532 139.2 73.5199ZM137.104 76.7199C136.4 76.7199 135.824 76.8959 135.376 77.2479C134.939 77.5892 134.72 78.0852 134.72 78.7359C134.72 79.3439 134.933 79.8399 135.36 80.2239C135.787 80.5972 136.368 80.7839 137.104 80.7839C137.829 80.7839 138.4 80.5919 138.816 80.2079C139.243 79.8239 139.456 79.3332 139.456 78.7359C139.456 78.0959 139.237 77.5999 138.8 77.2479C138.373 76.8959 137.808 76.7199 137.104 76.7199ZM143.163 76.0319C143.163 74.1865 143.472 72.7465 144.091 71.7119C144.72 70.6665 145.798 70.1439 147.323 70.1439C148.848 70.1439 149.92 70.6665 150.539 71.7119C151.168 72.7465 151.483 74.1865 151.483 76.0319C151.483 77.8985 151.168 79.3599 150.539 80.4159C149.92 81.4612 148.848 81.9839 147.323 81.9839C145.798 81.9839 144.72 81.4612 144.091 80.4159C143.472 79.3599 143.163 77.8985 143.163 76.0319ZM149.691 76.0319C149.691 75.1679 149.632 74.4372 149.515 73.8399C149.408 73.2425 149.184 72.7572 148.843 72.3839C148.502 71.9999 147.995 71.8079 147.323 71.8079C146.651 71.8079 146.144 71.9999 145.803 72.3839C145.462 72.7572 145.232 73.2425 145.115 73.8399C145.008 74.4372 144.955 75.1679 144.955 76.0319C144.955 76.9279 145.008 77.6799 145.115 78.2879C145.222 78.8959 145.446 79.3865 145.787 79.7599C146.139 80.1332 146.651 80.3199 147.323 80.3199C147.995 80.3199 148.502 80.1332 148.843 79.7599C149.195 79.3865 149.424 78.8959 149.531 78.2879C149.638 77.6799 149.691 76.9279 149.691 76.0319Z" fill="white"/>
<path d="M178.72 60.0159V58.3519H182.048V70.0159H180.208V60.0159H178.72ZM184.554 64.0319C184.554 62.1865 184.863 60.7465 185.482 59.7119C186.111 58.6665 187.188 58.1439 188.714 58.1439C190.239 58.1439 191.311 58.6665 191.93 59.7119C192.559 60.7465 192.874 62.1865 192.874 64.0319C192.874 65.8985 192.559 67.3599 191.93 68.4159C191.311 69.4612 190.239 69.9839 188.714 69.9839C187.188 69.9839 186.111 69.4612 185.482 68.4159C184.863 67.3599 184.554 65.8985 184.554 64.0319ZM191.082 64.0319C191.082 63.1679 191.023 62.4372 190.906 61.8399C190.799 61.2425 190.575 60.7572 190.234 60.3839C189.892 59.9999 189.386 59.8079 188.714 59.8079C188.042 59.8079 187.535 59.9999 187.194 60.3839C186.852 60.7572 186.623 61.2425 186.506 61.8399C186.399 62.4372 186.346 63.1679 186.346 64.0319C186.346 64.9279 186.399 65.6799 186.506 66.2879C186.612 66.8959 186.836 67.3865 187.178 67.7599C187.53 68.1332 188.042 68.3199 188.714 68.3199C189.386 68.3199 189.892 68.1332 190.234 67.7599C190.586 67.3865 190.815 66.8959 190.922 66.2879C191.028 65.6799 191.082 64.9279 191.082 64.0319ZM194.804 64.0319C194.804 62.1865 195.113 60.7465 195.732 59.7119C196.361 58.6665 197.438 58.1439 198.964 58.1439C200.489 58.1439 201.561 58.6665 202.18 59.7119C202.809 60.7465 203.124 62.1865 203.124 64.0319C203.124 65.8985 202.809 67.3599 202.18 68.4159C201.561 69.4612 200.489 69.9839 198.964 69.9839C197.438 69.9839 196.361 69.4612 195.732 68.4159C195.113 67.3599 194.804 65.8985 194.804 64.0319ZM201.332 64.0319C201.332 63.1679 201.273 62.4372 201.156 61.8399C201.049 61.2425 200.825 60.7572 200.484 60.3839C200.142 59.9999 199.636 59.8079 198.964 59.8079C198.292 59.8079 197.785 59.9999 197.444 60.3839C197.102 60.7572 196.873 61.2425 196.756 61.8399C196.649 62.4372 196.596 63.1679 196.596 64.0319C196.596 64.9279 196.649 65.6799 196.756 66.2879C196.862 66.8959 197.086 67.3865 197.428 67.7599C197.78 68.1332 198.292 68.3199 198.964 68.3199C199.636 68.3199 200.142 68.1332 200.484 67.7599C200.836 67.3865 201.065 66.8959 201.172 66.2879C201.278 65.6799 201.332 64.9279 201.332 64.0319Z" fill="white"/>
<path d="M234.72 73.0159V71.3519H238.048V83.0159H236.208V73.0159H234.72ZM241.562 80.5359C242.586 79.6505 243.391 78.9252 243.978 78.3599C244.575 77.7839 245.071 77.1865 245.466 76.5679C245.86 75.9492 246.058 75.3305 246.058 74.7119C246.058 74.0719 245.903 73.5705 245.594 73.2079C245.295 72.8452 244.82 72.6639 244.17 72.6639C243.54 72.6639 243.05 72.8665 242.698 73.2719C242.356 73.6665 242.175 74.1999 242.154 74.8719H240.394C240.426 73.6559 240.788 72.7279 241.482 72.0879C242.186 71.4372 243.076 71.1119 244.154 71.1119C245.316 71.1119 246.223 71.4319 246.874 72.0719C247.535 72.7119 247.866 73.5652 247.866 74.6319C247.866 75.3999 247.668 76.1412 247.274 76.8559C246.89 77.5599 246.426 78.1945 245.882 78.7599C245.348 79.3145 244.666 79.9599 243.834 80.6959L243.114 81.3359H248.186V82.8559H240.41V81.5279L241.562 80.5359ZM249.788 77.0319C249.788 75.1865 250.097 73.7465 250.716 72.7119C251.345 71.6665 252.423 71.1439 253.948 71.1439C255.473 71.1439 256.545 71.6665 257.164 72.7119C257.793 73.7465 258.108 75.1865 258.108 77.0319C258.108 78.8985 257.793 80.3599 257.164 81.4159C256.545 82.4612 255.473 82.9839 253.948 82.9839C252.423 82.9839 251.345 82.4612 250.716 81.4159C250.097 80.3599 249.788 78.8985 249.788 77.0319ZM256.316 77.0319C256.316 76.1679 256.257 75.4372 256.14 74.8399C256.033 74.2425 255.809 73.7572 255.468 73.3839C255.127 72.9999 254.62 72.8079 253.948 72.8079C253.276 72.8079 252.769 72.9999 252.428 73.3839C252.087 73.7572 251.857 74.2425 251.74 74.8399C251.633 75.4372 251.58 76.1679 251.58 77.0319C251.58 77.9279 251.633 78.6799 251.74 79.2879C251.847 79.8959 252.071 80.3865 252.412 80.7599C252.764 81.1332 253.276 81.3199 253.948 81.3199C254.62 81.3199 255.127 81.1332 255.468 80.7599C255.82 80.3865 256.049 79.8959 256.156 79.2879C256.263 78.6799 256.316 77.9279 256.316 77.0319Z" fill="white"/>
<path d="M269.72 115.016V113.352H273.048V125.016H271.208V115.016H269.72ZM275.33 122.584V121.208L280.706 113.496H282.914V121H284.402V122.584H282.914V125.016H281.122V122.584H275.33ZM281.202 115.352L277.426 121H281.202V115.352ZM285.913 119.032C285.913 117.187 286.222 115.747 286.841 114.712C287.47 113.667 288.548 113.144 290.073 113.144C291.598 113.144 292.67 113.667 293.289 114.712C293.918 115.747 294.233 117.187 294.233 119.032C294.233 120.899 293.918 122.36 293.289 123.416C292.67 124.461 291.598 124.984 290.073 124.984C288.548 124.984 287.47 124.461 286.841 123.416C286.222 122.36 285.913 120.899 285.913 119.032ZM292.441 119.032C292.441 118.168 292.382 117.437 292.265 116.84C292.158 116.243 291.934 115.757 291.593 115.384C291.252 115 290.745 114.808 290.073 114.808C289.401 114.808 288.894 115 288.553 115.384C288.212 115.757 287.982 116.243 287.865 116.84C287.758 117.437 287.705 118.168 287.705 119.032C287.705 119.928 287.758 120.68 287.865 121.288C287.972 121.896 288.196 122.387 288.537 122.76C288.889 123.133 289.401 123.32 290.073 123.32C290.745 123.32 291.252 123.133 291.593 122.76C291.945 122.387 292.174 121.896 292.281 121.288C292.388 120.68 292.441 119.928 292.441 119.032Z" fill="white"/>
<path d="M279.72 169.016V167.352H283.048V179.016H281.208V169.016H279.72ZM291.826 170.056C291.708 169.565 291.495 169.197 291.186 168.952C290.876 168.707 290.444 168.584 289.89 168.584C289.047 168.584 288.418 168.909 288.002 169.56C287.586 170.2 287.367 171.267 287.346 172.76C287.623 172.291 288.028 171.928 288.562 171.672C289.095 171.416 289.671 171.288 290.29 171.288C290.994 171.288 291.612 171.443 292.146 171.752C292.69 172.051 293.111 172.488 293.41 173.064C293.719 173.64 293.874 174.328 293.874 175.128C293.874 175.875 293.724 176.541 293.426 177.128C293.138 177.715 292.706 178.179 292.13 178.52C291.554 178.851 290.86 179.016 290.05 179.016C288.951 179.016 288.087 178.776 287.458 178.296C286.839 177.805 286.402 177.117 286.146 176.232C285.9 175.347 285.778 174.243 285.778 172.92C285.778 169.016 287.154 167.064 289.906 167.064C290.972 167.064 291.81 167.352 292.418 167.928C293.036 168.504 293.399 169.213 293.506 170.056H291.826ZM289.89 172.824C289.239 172.824 288.684 173.021 288.226 173.416C287.778 173.8 287.554 174.36 287.554 175.096C287.554 175.832 287.762 176.419 288.178 176.856C288.604 177.283 289.196 177.496 289.954 177.496C290.626 177.496 291.154 177.288 291.538 176.872C291.932 176.456 292.13 175.901 292.13 175.208C292.13 174.483 291.938 173.907 291.554 173.48C291.18 173.043 290.626 172.824 289.89 172.824ZM295.819 173.032C295.819 171.187 296.129 169.747 296.747 168.712C297.377 167.667 298.454 167.144 299.979 167.144C301.505 167.144 302.577 167.667 303.195 168.712C303.825 169.747 304.139 171.187 304.139 173.032C304.139 174.899 303.825 176.36 303.195 177.416C302.577 178.461 301.505 178.984 299.979 178.984C298.454 178.984 297.377 178.461 296.747 177.416C296.129 176.36 295.819 174.899 295.819 173.032ZM302.347 173.032C302.347 172.168 302.289 171.437 302.171 170.84C302.065 170.243 301.841 169.757 301.499 169.384C301.158 169 300.651 168.808 299.979 168.808C299.307 168.808 298.801 169 298.459 169.384C298.118 169.757 297.889 170.243 297.771 170.84C297.665 171.437 297.611 172.168 297.611 173.032C297.611 173.928 297.665 174.68 297.771 175.288C297.878 175.896 298.102 176.387 298.443 176.76C298.795 177.133 299.307 177.32 299.979 177.32C300.651 177.32 301.158 177.133 301.499 176.76C301.851 176.387 302.081 175.896 302.187 175.288C302.294 174.68 302.347 173.928 302.347 173.032Z" fill="white"/>
<path d="M265.72 221.016V219.352H269.048V231.016H267.208V221.016H265.72ZM273.522 224.92C272.412 224.365 271.858 223.491 271.858 222.296C271.858 221.72 272.002 221.192 272.29 220.712C272.578 220.232 273.01 219.853 273.586 219.576C274.162 219.288 274.866 219.144 275.698 219.144C276.519 219.144 277.218 219.288 277.794 219.576C278.38 219.853 278.818 220.232 279.106 220.712C279.394 221.192 279.538 221.72 279.538 222.296C279.538 222.893 279.383 223.421 279.074 223.88C278.775 224.328 278.375 224.675 277.874 224.92C278.482 225.144 278.962 225.512 279.314 226.024C279.666 226.525 279.842 227.117 279.842 227.8C279.842 228.493 279.666 229.107 279.314 229.64C278.962 230.173 278.471 230.584 277.842 230.872C277.212 231.16 276.498 231.304 275.698 231.304C274.898 231.304 274.183 231.16 273.554 230.872C272.935 230.584 272.45 230.173 272.098 229.64C271.746 229.107 271.57 228.493 271.57 227.8C271.57 227.107 271.746 226.509 272.098 226.008C272.45 225.507 272.924 225.144 273.522 224.92ZM277.794 222.52C277.794 221.923 277.607 221.464 277.234 221.144C276.86 220.824 276.348 220.664 275.698 220.664C275.058 220.664 274.551 220.824 274.178 221.144C273.804 221.464 273.618 221.928 273.618 222.536C273.618 223.069 273.81 223.507 274.194 223.848C274.588 224.179 275.09 224.344 275.698 224.344C276.306 224.344 276.807 224.173 277.202 223.832C277.596 223.491 277.794 223.053 277.794 222.52ZM275.698 225.72C274.994 225.72 274.418 225.896 273.97 226.248C273.532 226.589 273.314 227.085 273.314 227.736C273.314 228.344 273.527 228.84 273.954 229.224C274.38 229.597 274.962 229.784 275.698 229.784C276.423 229.784 276.994 229.592 277.41 229.208C277.836 228.824 278.05 228.333 278.05 227.736C278.05 227.096 277.831 226.6 277.394 226.248C276.967 225.896 276.402 225.72 275.698 225.72ZM281.757 225.032C281.757 223.187 282.066 221.747 282.685 220.712C283.314 219.667 284.392 219.144 285.917 219.144C287.442 219.144 288.514 219.667 289.133 220.712C289.762 221.747 290.077 223.187 290.077 225.032C290.077 226.899 289.762 228.36 289.133 229.416C288.514 230.461 287.442 230.984 285.917 230.984C284.392 230.984 283.314 230.461 282.685 229.416C282.066 228.36 281.757 226.899 281.757 225.032ZM288.285 225.032C288.285 224.168 288.226 223.437 288.109 222.84C288.002 222.243 287.778 221.757 287.437 221.384C287.096 221 286.589 220.808 285.917 220.808C285.245 220.808 284.738 221 284.397 221.384C284.056 221.757 283.826 222.243 283.709 222.84C283.602 223.437 283.549 224.168 283.549 225.032C283.549 225.928 283.602 226.68 283.709 227.288C283.816 227.896 284.04 228.387 284.381 228.76C284.733 229.133 285.245 229.32 285.917 229.32C286.589 229.32 287.096 229.133 287.437 228.76C287.789 228.387 288.018 227.896 288.125 227.288C288.232 226.68 288.285 225.928 288.285 225.032Z" fill="white"/>
<defs>
<filter id="filter0_d_254_59" x="0.500488" y="67.5156" width="60.9998" height="213" filterUnits="userSpaceOnUse" color-interpolation-filters="sRGB">
<feFlood flood-opacity="0" result="BackgroundImageFix"/>
<feColorMatrix in="SourceAlpha" type="matrix" values="0 0 0 0 0 0 0 0 0 0 0 0 0 0 0 0 0 0 127 0" result="hardAlpha"/>
<feOffset dy="4"/>
<feGaussianBlur stdDeviation="8"/>
<feComposite in2="hardAlpha" operator="out"/>
<feColorMatrix type="matrix" values="0 0 0 0 1 0 0 0 0 1 0 0 0 0 1 0 0 0 0.71 0"/>
<feBlend mode="normal" in2="BackgroundImageFix" result="effect1_dropShadow_254_59"/>
<feBlend mode="normal" in="SourceGraphic" in2="effect1_dropShadow_254_59" result="shape"/>
</filter>
<filter id="filter1_d_254_59" x="14.9746" y="168.744" width="43.7803" height="35.8201" filterUnits="userSpaceOnUse" color-interpolation-filters="sRGB">
<feFlood flood-opacity="0" result="BackgroundImageFix"/>
<feColorMatrix in="SourceAlpha" type="matrix" values="0 0 0 0 0 0 0 0 0 0 0 0 0 0 0 0 0 0 127 0" result="hardAlpha"/>
<feOffset dy="1"/>
<feGaussianBlur stdDeviation="8"/>
<feComposite in2="hardAlpha" operator="out"/>
<feColorMatrix type="matrix" values="0 0 0 0 1 0 0 0 0 1 0 0 0 0 1 0 0 0 0.28 0"/>
<feBlend mode="normal" in2="BackgroundImageFix" result="effect1_dropShadow_254_59"/>
<feBlend mode="normal" in="SourceGraphic" in2="effect1_dropShadow_254_59" result="shape"/>
</filter>
<filter id="filter2_d_254_59" x="13.7927" y="156.216" width="66.092" height="34.988" filterUnits="userSpaceOnUse" color-interpolation-filters="sRGB">
<feFlood flood-opacity="0" result="BackgroundImageFix"/>
<feColorMatrix in="SourceAlpha" type="matrix" values="0 0 0 0 0 0 0 0 0 0 0 0 0 0 0 0 0 0 127 0" result="hardAlpha"/>
<feOffset dy="1"/>
<feGaussianBlur stdDeviation="8"/>
<feComposite in2="hardAlpha" operator="out"/>
<feColorMatrix type="matrix" values="0 0 0 0 1 0 0 0 0 1 0 0 0 0 1 0 0 0 0.28 0"/>
<feBlend mode="normal" in2="BackgroundImageFix" result="effect1_dropShadow_254_59"/>
<feBlend mode="normal" in="SourceGraphic" in2="effect1_dropShadow_254_59" result="shape"/>
</filter>
<filter id="filter3_d_254_59" x="26.1479" y="213.126" width="44.9026" height="38.9243" filterUnits="userSpaceOnUse" color-interpolation-filters="sRGB">
<feFlood flood-opacity="0" result="BackgroundImageFix"/>
<feColorMatrix in="SourceAlpha" type="matrix" values="0 0 0 0 0 0 0 0 0 0 0 0 0 0 0 0 0 0 127 0" result="hardAlpha"/>
<feOffset dy="1"/>
<feGaussianBlur stdDeviation="8"/>
<feComposite in2="hardAlpha" operator="out"/>
<feColorMatrix type="matrix" values="0 0 0 0 1 0 0 0 0 1 0 0 0 0 1 0 0 0 0.28 0"/>
<feBlend mode="normal" in2="BackgroundImageFix" result="effect1_dropShadow_254_59"/>
<feBlend mode="normal" in="SourceGraphic" in2="effect1_dropShadow_254_59" result="shape"/>
</filter>
<filter id="filter4_d_254_59" x="20.8518" y="199.567" width="44.3467" height="37.0642" filterUnits="userSpaceOnUse" color-interpolation-filters="sRGB">
<feFlood flood-opacity="0" result="BackgroundImageFix"/>
<feColorMatrix in="SourceAlpha" type="matrix" values="0 0 0 0 0 0 0 0 0 0 0 0 0 0 0 0 0 0 127 0" result="hardAlpha"/>
<feOffset dy="1"/>
<feGaussianBlur stdDeviation="8"/>
<feComposite in2="hardAlpha" operator="out"/>
<feColorMatrix type="matrix" values="0 0 0 0 1 0 0 0 0 1 0 0 0 0 1 0 0 0 0.28 0"/>
<feBlend mode="normal" in2="BackgroundImageFix" result="effect1_dropShadow_254_59"/>
<feBlend mode="normal" in="SourceGraphic" in2="effect1_dropShadow_254_59" result="shape"/>
</filter>
<filter id="filter5_d_254_59" x="17.3264" y="184.158" width="43.7703" height="36.4365" filterUnits="userSpaceOnUse" color-interpolation-filters="sRGB">
<feFlood flood-opacity="0" result="BackgroundImageFix"/>
<feColorMatrix in="SourceAlpha" type="matrix" values="0 0 0 0 0 0 0 0 0 0 0 0 0 0 0 0 0 0 127 0" result="hardAlpha"/>
<feOffset dy="1"/>
<feGaussianBlur stdDeviation="8"/>
<feComposite in2="hardAlpha" operator="out"/>
<feColorMatrix type="matrix" values="0 0 0 0 1 0 0 0 0 1 0 0 0 0 1 0 0 0 0.28 0"/>
<feBlend mode="normal" in2="BackgroundImageFix" result="effect1_dropShadow_254_59"/>
<feBlend mode="normal" in="SourceGraphic" in2="effect1_dropShadow_254_59" result="shape"/>
</filter>
<filter id="filter6_d_254_59" x="35.6233" y="216.682" width="60.5671" height="49.6946" filterUnits="userSpaceOnUse" color-interpolation-filters="sRGB">
<feFlood flood-opacity="0" result="BackgroundImageFix"/>
<feColorMatrix in="SourceAlpha" type="matrix" values="0 0 0 0 0 0 0 0 0 0 0 0 0 0 0 0 0 0 127 0" result="hardAlpha"/>
<feOffset dy="1"/>
<feGaussianBlur stdDeviation="8"/>
<feComposite in2="hardAlpha" operator="out"/>
<feColorMatrix type="matrix" values="0 0 0 0 1 0 0 0 0 1 0 0 0 0 1 0 0 0 0.28 0"/>
<feBlend mode="normal" in2="BackgroundImageFix" result="effect1_dropShadow_254_59"/>
<feBlend mode="normal" in="SourceGraphic" in2="effect1_dropShadow_254_59" result="shape"/>
</filter>
<filter id="filter7_d_254_59" x="14.3777" y="137.293" width="44.387" height="34.5974" filterUnits="userSpaceOnUse" color-interpolation-filters="sRGB">
<feFlood flood-opacity="0" result="BackgroundImageFix"/>
<feColorMatrix in="SourceAlpha" type="matrix" values="0 0 0 0 0 0 0 0 0 0 0 0 0 0 0 0 0 0 127 0" result="hardAlpha"/>
<feOffset dy="1"/>
<feGaussianBlur stdDeviation="8"/>
<feComposite in2="hardAlpha" operator="out"/>
<feColorMatrix type="matrix" values="0 0 0 0 1 0 0 0 0 1 0 0 0 0 1 0 0 0 0.28 0"/>
<feBlend mode="normal" in2="BackgroundImageFix" result="effect1_dropShadow_254_59"/>
<feBlend mode="normal" in="SourceGraphic" in2="effect1_dropShadow_254_59" result="shape"/>
</filter>
<filter id="filter8_d_254_59" x="16.6987" y="120.212" width="44.4387" height="37.3147" filterUnits="userSpaceOnUse" color-interpolation-filters="sRGB">
<feFlood flood-opacity="0" result="BackgroundImageFix"/>
<feColorMatrix in="SourceAlpha" type="matrix" values="0 0 0 0 0 0 0 0 0 0 0 0 0 0 0 0 0 0 127 0" result="hardAlpha"/>
<feOffset dy="1"/>
<feGaussianBlur stdDeviation="8"/>
<feComposite in2="hardAlpha" operator="out"/>
<feColorMatrix type="matrix" values="0 0 0 0 1 0 0 0 0 1 0 0 0 0 1 0 0 0 0.28 0"/>
<feBlend mode="normal" in2="BackgroundImageFix" result="effect1_dropShadow_254_59"/>
<feBlend mode="normal" in="SourceGraphic" in2="effect1_dropShadow_254_59" result="shape"/>
</filter>
<filter id="filter9_d_254_59" x="21.3875" y="104.793" width="43.8625" height="37.9419" filterUnits="userSpaceOnUse" color-interpolation-filters="sRGB">
<feFlood flood-opacity="0" result="BackgroundImageFix"/>
<feColorMatrix in="SourceAlpha" type="matrix" values="0 0 0 0 0 0 0 0 0 0 0 0 0 0 0 0 0 0 127 0" result="hardAlpha"/>
<feOffset dy="1"/>
<feGaussianBlur stdDeviation="8"/>
<feComposite in2="hardAlpha" operator="out"/>
<feColorMatrix type="matrix" values="0 0 0 0 1 0 0 0 0 1 0 0 0 0 1 0 0 0 0.28 0"/>
<feBlend mode="normal" in2="BackgroundImageFix" result="effect1_dropShadow_254_59"/>
<feBlend mode="normal" in="SourceGraphic" in2="effect1_dropShadow_254_59" result="shape"/>
</filter>
<filter id="filter10_d_254_59" x="27.8308" y="89.3728" width="43.2961" height="39.1855" filterUnits="userSpaceOnUse" color-interpolation-filters="sRGB">
<feFlood flood-opacity="0" result="BackgroundImageFix"/>
<feColorMatrix in="SourceAlpha" type="matrix" values="0 0 0 0 0 0 0 0 0 0 0 0 0 0 0 0 0 0 127 0" result="hardAlpha"/>
<feOffset dy="1"/>
<feGaussianBlur stdDeviation="8"/>
<feComposite in2="hardAlpha" operator="out"/>
<feColorMatrix type="matrix" values="0 0 0 0 1 0 0 0 0 1 0 0 0 0 1 0 0 0 0.28 0"/>
<feBlend mode="normal" in2="BackgroundImageFix" result="effect1_dropShadow_254_59"/>
<feBlend mode="normal" in="SourceGraphic" in2="effect1_dropShadow_254_59" result="shape"/>
</filter>
<filter id="filter11_d_254_59" x="35.3623" y="74.7537" width="62.8494" height="50.5435" filterUnits="userSpaceOnUse" color-interpolation-filters="sRGB">
<feFlood flood-opacity="0" result="BackgroundImageFix"/>
<feColorMatrix in="SourceAlpha" type="matrix" values="0 0 0 0 0 0 0 0 0 0 0 0 0 0 0 0 0 0 127 0" result="hardAlpha"/>
<feOffset dy="1"/>
<feGaussianBlur stdDeviation="8"/>
<feComposite in2="hardAlpha" operator="out"/>
<feColorMatrix type="matrix" values="0 0 0 0 1 0 0 0 0 1 0 0 0 0 1 0 0 0 0.28 0"/>
<feBlend mode="normal" in2="BackgroundImageFix" result="effect1_dropShadow_254_59"/>
<feBlend mode="normal" in="SourceGraphic" in2="effect1_dropShadow_254_59" result="shape"/>
</filter>
</defs>
</svg>
